<?xml version="1.0" encoding="UTF-8"?>
<svg xmlns="http://www.w3.org/2000/svg" xmlns:xlink="http://www.w3.org/1999/xlink" viewBox="0 0 150 150" version="1.1">
<defs>
<radialGradient id="radial0" gradientUnits="userSpaceOnUse" cx="199.7884" cy="628.4379" fx="199.7884" fy="628.4379" r="52.3515" gradientTransform="matrix(-1.761999,0.496925,-0.358016,-1.269434,722.174151,768.78741)">
<stop offset="0" style="stop-color:rgb(100%,0%,37.254902%);stop-opacity:1;"/>
<stop offset="1" style="stop-color:rgb(98.823529%,0.392157%,84.705882%);stop-opacity:1;"/>
</radialGradient>
<radialGradient id="radial1" gradientUnits="userSpaceOnUse" cx="158.429" cy="578.088" fx="158.429" fy="578.088" r="52.3515" gradientTransform="matrix(0,-2.287094,2.426559,0,-1362.922074,523.89514)">
<stop offset="0" style="stop-color:rgb(100%,80%,0%);stop-opacity:1;"/>
<stop offset="0.1242" style="stop-color:rgb(100%,80%,0%);stop-opacity:1;"/>
<stop offset="0.5672" style="stop-color:rgb(99.607843%,29.019608%,1.960784%);stop-opacity:1;"/>
<stop offset="0.6942" style="stop-color:rgb(100%,5.882353%,24.705882%);stop-opacity:1;"/>
<stop offset="1" style="stop-color:rgb(99.607843%,2.352941%,34.117647%);stop-opacity:0;"/>
</radialGradient>
<radialGradient id="radial2" gradientUnits="userSpaceOnUse" cx="172.6149" cy="600.6924" fx="172.6149" fy="600.6924" r="65" gradientTransform="matrix(0.382343,-0.658789,0.857668,0.49777,-502.402003,-37.405025)">
<stop offset="0" style="stop-color:rgb(100%,80%,0%);stop-opacity:1;"/>
<stop offset="1" style="stop-color:rgb(100%,80%,0%);stop-opacity:0;"/>
</radialGradient>
<radialGradient id="radial3" gradientUnits="userSpaceOnUse" cx="144.012" cy="51.3367" fx="144.012" fy="51.3367" r="67.081" gradientTransform="matrix(-1.360006,0.382955,-0.130439,-0.463363,222.905338,-25.254655)">
<stop offset="0" style="stop-color:rgb(47.058824%,4.705882%,100%);stop-opacity:1;"/>
<stop offset="1" style="stop-color:rgb(50.980392%,4.313725%,100%);stop-opacity:0;"/>
</radialGradient>
</defs>
<g id="surface1">
<path style=" stroke:none;fill-rule:nonzero;fill:url(#radial0);" d="M 75.023438 0 C 43.714844 0 34.554688 0.03125 32.773438 0.179688 C 26.347656 0.714844 22.351562 1.726562 17.996094 3.894531 C 14.636719 5.5625 11.992188 7.496094 9.378906 10.203125 C 4.621094 15.148438 1.734375 21.226562 0.691406 28.449219 C 0.183594 31.960938 0.0351562 32.675781 0.00390625 50.59375 C -0.0078125 56.566406 0.00390625 64.425781 0.00390625 74.96875 C 0.00390625 106.265625 0.0390625 115.414062 0.191406 117.195312 C 0.707031 123.449219 1.691406 127.382812 3.765625 131.6875 C 7.734375 139.925781 15.3125 146.113281 24.242188 148.417969 C 27.335938 149.214844 30.75 149.652344 35.132812 149.863281 C 36.992188 149.941406 55.921875 150 74.863281 150 C 93.804688 150 112.75 149.976562 114.558594 149.886719 C 119.636719 149.644531 122.582031 149.25 125.84375 148.410156 C 134.828125 146.089844 142.269531 139.996094 146.320312 131.640625 C 148.355469 127.441406 149.386719 123.355469 149.855469 117.425781 C 149.957031 116.136719 150 95.527344 150 74.949219 C 150 54.371094 149.953125 33.800781 149.851562 32.507812 C 149.378906 26.484375 148.347656 22.433594 146.246094 18.15625 C 144.519531 14.648438 142.605469 12.03125 139.824219 9.355469 C 134.863281 4.613281 128.796875 1.730469 121.5625 0.6875 C 118.0625 0.179688 117.363281 0.03125 99.4375 0 Z M 75.023438 0 "/>
<path style=" stroke:none;fill-rule:nonzero;fill:url(#radial1);" d="M 75.023438 0 C 43.714844 0 34.554688 0.03125 32.773438 0.179688 C 26.347656 0.714844 22.351562 1.726562 17.996094 3.894531 C 14.636719 5.5625 11.992188 7.496094 9.378906 10.203125 C 4.621094 15.148438 1.734375 21.226562 0.691406 28.449219 C 0.183594 31.960938 0.0351562 32.675781 0.00390625 50.59375 C -0.0078125 56.566406 0.00390625 64.425781 0.00390625 74.96875 C 0.00390625 106.265625 0.0390625 115.414062 0.191406 117.195312 C 0.707031 123.449219 1.691406 127.382812 3.765625 131.6875 C 7.734375 139.925781 15.3125 146.113281 24.242188 148.417969 C 27.335938 149.214844 30.75 149.652344 35.132812 149.863281 C 36.992188 149.941406 55.921875 150 74.863281 150 C 93.804688 150 112.75 149.976562 114.558594 149.886719 C 119.636719 149.644531 122.582031 149.25 125.84375 148.410156 C 134.828125 146.089844 142.269531 139.996094 146.320312 131.640625 C 148.355469 127.441406 149.386719 123.355469 149.855469 117.425781 C 149.957031 116.136719 150 95.527344 150 74.949219 C 150 54.371094 149.953125 33.800781 149.851562 32.507812 C 149.378906 26.484375 148.347656 22.433594 146.246094 18.15625 C 144.519531 14.648438 142.605469 12.03125 139.824219 9.355469 C 134.863281 4.613281 128.796875 1.730469 121.5625 0.6875 C 118.0625 0.179688 117.363281 0.03125 99.4375 0 Z M 75.023438 0 "/>
<path style=" stroke:none;fill-rule:nonzero;fill:url(#radial2);" d="M 75.023438 0 C 43.714844 0 34.554688 0.03125 32.773438 0.179688 C 26.347656 0.714844 22.351562 1.726562 17.996094 3.894531 C 14.636719 5.5625 11.992188 7.496094 9.378906 10.203125 C 4.621094 15.148438 1.734375 21.226562 0.691406 28.449219 C 0.183594 31.960938 0.0351562 32.675781 0.00390625 50.59375 C -0.0078125 56.566406 0.00390625 64.425781 0.00390625 74.96875 C 0.00390625 106.265625 0.0390625 115.414062 0.191406 117.195312 C 0.707031 123.449219 1.691406 127.382812 3.765625 131.6875 C 7.734375 139.925781 15.3125 146.113281 24.242188 148.417969 C 27.335938 149.214844 30.75 149.652344 35.132812 149.863281 C 36.992188 149.941406 55.921875 150 74.863281 150 C 93.804688 150 112.75 149.976562 114.558594 149.886719 C 119.636719 149.644531 122.582031 149.25 125.84375 148.410156 C 134.828125 146.089844 142.269531 139.996094 146.320312 131.640625 C 148.355469 127.441406 149.386719 123.355469 149.855469 117.425781 C 149.957031 116.136719 150 95.527344 150 74.949219 C 150 54.371094 149.953125 33.800781 149.851562 32.507812 C 149.378906 26.484375 148.347656 22.433594 146.246094 18.15625 C 144.519531 14.648438 142.605469 12.03125 139.824219 9.355469 C 134.863281 4.613281 128.796875 1.730469 121.5625 0.6875 C 118.0625 0.179688 117.363281 0.03125 99.4375 0 Z M 75.023438 0 "/>
<path style=" stroke:none;fill-rule:nonzero;fill:url(#radial3);" d="M 75.023438 0 C 43.714844 0 34.554688 0.03125 32.773438 0.179688 C 26.347656 0.714844 22.351562 1.726562 17.996094 3.894531 C 14.636719 5.5625 11.992188 7.496094 9.378906 10.203125 C 4.621094 15.148438 1.734375 21.226562 0.691406 28.449219 C 0.183594 31.960938 0.0351562 32.675781 0.00390625 50.59375 C -0.0078125 56.566406 0.00390625 64.425781 0.00390625 74.96875 C 0.00390625 106.265625 0.0390625 115.414062 0.191406 117.195312 C 0.707031 123.449219 1.691406 127.382812 3.765625 131.6875 C 7.734375 139.925781 15.3125 146.113281 24.242188 148.417969 C 27.335938 149.214844 30.75 149.652344 35.132812 149.863281 C 36.992188 149.941406 55.921875 150 74.863281 150 C 93.804688 150 112.75 149.976562 114.558594 149.886719 C 119.636719 149.644531 122.582031 149.25 125.84375 148.410156 C 134.828125 146.089844 142.269531 139.996094 146.320312 131.640625 C 148.355469 127.441406 149.386719 123.355469 149.855469 117.425781 C 149.957031 116.136719 150 95.527344 150 74.949219 C 150 54.371094 149.953125 33.800781 149.851562 32.507812 C 149.378906 26.484375 148.347656 22.433594 146.246094 18.15625 C 144.519531 14.648438 142.605469 12.03125 139.824219 9.355469 C 134.863281 4.613281 128.796875 1.730469 121.5625 0.6875 C 118.0625 0.179688 117.363281 0.03125 99.4375 0 Z M 75.023438 0 "/>
<path style=" stroke:none;fill-rule:nonzero;fill:rgb(100%,100%,100%);fill-opacity:1;" d="M 75.03125 19.261719 C 59.882812 19.261719 57.980469 19.328125 52.035156 19.597656 C 46.097656 19.867188 42.042969 20.808594 38.5 22.1875 C 34.832031 23.609375 31.71875 25.515625 28.621094 28.613281 C 25.515625 31.710938 23.609375 34.820312 22.179688 38.484375 C 20.796875 42.027344 19.859375 46.078125 19.589844 52.011719 C 19.324219 57.953125 19.253906 59.855469 19.253906 74.992188 C 19.253906 90.125 19.320312 92.019531 19.589844 97.964844 C 19.867188 103.894531 20.804688 107.945312 22.183594 111.488281 C 23.609375 115.15625 25.515625 118.261719 28.613281 121.363281 C 31.714844 124.460938 34.824219 126.371094 38.492188 127.792969 C 42.039062 129.171875 46.09375 130.109375 52.027344 130.382812 C 57.976562 130.652344 59.878906 130.71875 75.023438 130.71875 C 90.171875 130.71875 92.066406 130.65625 98.015625 130.382812 C 103.953125 130.109375 108.007812 129.171875 111.558594 127.792969 C 115.226562 126.371094 118.332031 124.460938 121.429688 121.363281 C 124.53125 118.261719 126.4375 115.15625 127.867188 111.488281 C 129.238281 107.945312 130.179688 103.894531 130.457031 97.964844 C 130.726562 92.019531 130.796875 90.125 130.796875 74.992188 C 130.796875 59.855469 130.726562 57.957031 130.457031 52.011719 C 130.179688 46.078125 129.238281 42.027344 127.867188 38.484375 C 126.4375 34.820312 124.53125 31.710938 121.429688 28.613281 C 118.328125 25.511719 115.226562 23.609375 111.554688 22.1875 C 108 20.808594 103.945312 19.867188 98.007812 19.597656 C 92.058594 19.328125 90.164062 19.261719 75.015625 19.261719 Z M 70.027344 29.304688 C 71.511719 29.300781 73.167969 29.304688 75.03125 29.304688 C 89.921875 29.304688 91.683594 29.359375 97.566406 29.621094 C 103.003906 29.871094 105.957031 30.78125 107.921875 31.542969 C 110.523438 32.550781 112.378906 33.757812 114.332031 35.710938 C 116.28125 37.660156 117.488281 39.519531 118.503906 42.121094 C 119.265625 44.082031 120.179688 47.03125 120.425781 52.464844 C 120.691406 58.339844 120.75 60.105469 120.75 74.976562 C 120.75 89.851562 120.691406 91.613281 120.425781 97.492188 C 120.175781 102.921875 119.265625 105.871094 118.503906 107.832031 C 117.492188 110.433594 116.28125 112.285156 114.332031 114.238281 C 112.378906 116.1875 110.523438 117.394531 107.921875 118.402344 C 105.957031 119.171875 103.003906 120.078125 97.566406 120.324219 C 91.6875 120.59375 89.921875 120.648438 75.03125 120.648438 C 60.136719 120.648438 58.375 120.59375 52.496094 120.324219 C 47.054688 120.074219 44.105469 119.164062 42.136719 118.402344 C 39.535156 117.394531 37.675781 116.1875 35.722656 114.234375 C 33.773438 112.285156 32.5625 110.433594 31.550781 107.828125 C 30.789062 105.867188 29.878906 102.917969 29.628906 97.484375 C 29.363281 91.609375 29.308594 89.84375 29.308594 74.960938 C 29.308594 60.082031 29.363281 58.328125 29.628906 52.449219 C 29.878906 47.019531 30.789062 44.066406 31.550781 42.101562 C 32.5625 39.503906 33.773438 37.644531 35.722656 35.695312 C 37.675781 33.746094 39.535156 32.535156 42.136719 31.523438 C 44.105469 30.757812 47.054688 29.851562 52.496094 29.605469 C 57.640625 29.371094 59.632812 29.300781 70.027344 29.289062 Z M 104.800781 38.558594 C 101.105469 38.558594 98.105469 41.546875 98.105469 45.242188 C 98.105469 48.933594 101.105469 51.929688 104.800781 51.929688 C 108.496094 51.929688 111.492188 48.933594 111.492188 45.242188 C 111.492188 41.550781 108.496094 38.554688 104.800781 38.554688 Z M 75.03125 46.371094 C 59.210938 46.371094 46.390625 59.183594 46.390625 74.992188 C 46.390625 90.792969 59.210938 103.601562 75.03125 103.601562 C 90.847656 103.601562 103.667969 90.792969 103.667969 74.992188 C 103.667969 59.183594 90.847656 46.371094 75.027344 46.371094 Z M 75.03125 56.414062 C 85.296875 56.414062 93.621094 64.730469 93.621094 74.992188 C 93.621094 85.25 85.296875 93.566406 75.03125 93.566406 C 64.761719 93.566406 56.441406 85.25 56.441406 74.992188 C 56.441406 64.730469 64.761719 56.414062 75.03125 56.414062 Z M 75.03125 56.414062 "/>
</g>
</svg>
